<mxfile host="app.diagrams.net" agent="Mozilla/5.0 (Windows NT 10.0; Win64; x64) AppleWebKit/537.36 (KHTML, like Gecko) Chrome/130.0.0.0 Safari/537.36" version="24.8.4">
  <diagram name="PÃ¡gina-1" id="YjmNaG7fxPTg60lZIK_A">
    <mxGraphModel dx="1434" dy="740" grid="1" gridSize="10" guides="1" tooltips="1" connect="1" arrows="1" fold="1" page="1" pageScale="1" pageWidth="827" pageHeight="1169" math="0" shadow="0">
      <root>
        <mxCell id="0" />
        <mxCell id="1" parent="0" />
        <mxCell id="b-_r-TRPUt8KHK4c5pgt-12" value="" style="edgeStyle=orthogonalEdgeStyle;rounded=0;orthogonalLoop=1;jettySize=auto;html=1;" edge="1" parent="1" target="b-_r-TRPUt8KHK4c5pgt-2">
          <mxGeometry relative="1" as="geometry">
            <mxPoint x="120" y="150" as="sourcePoint" />
          </mxGeometry>
        </mxCell>
        <mxCell id="b-_r-TRPUt8KHK4c5pgt-1" value="INICIO" style="ellipse;whiteSpace=wrap;html=1;" vertex="1" parent="1">
          <mxGeometry x="60" y="70" width="120" height="80" as="geometry" />
        </mxCell>
        <mxCell id="b-_r-TRPUt8KHK4c5pgt-13" value="" style="edgeStyle=orthogonalEdgeStyle;rounded=0;orthogonalLoop=1;jettySize=auto;html=1;" edge="1" parent="1" source="b-_r-TRPUt8KHK4c5pgt-2" target="b-_r-TRPUt8KHK4c5pgt-4">
          <mxGeometry relative="1" as="geometry" />
        </mxCell>
        <mxCell id="b-_r-TRPUt8KHK4c5pgt-2" value="LED rojo (1) ALTO" style="rounded=0;whiteSpace=wrap;html=1;fillColor=#f8cecc;strokeColor=#b85450;" vertex="1" parent="1">
          <mxGeometry x="60" y="180" width="120" height="60" as="geometry" />
        </mxCell>
        <mxCell id="b-_r-TRPUt8KHK4c5pgt-14" value="" style="edgeStyle=orthogonalEdgeStyle;rounded=0;orthogonalLoop=1;jettySize=auto;html=1;" edge="1" parent="1" source="b-_r-TRPUt8KHK4c5pgt-3" target="b-_r-TRPUt8KHK4c5pgt-5">
          <mxGeometry relative="1" as="geometry" />
        </mxCell>
        <mxCell id="b-_r-TRPUt8KHK4c5pgt-3" value="LED verde (2) ALTO" style="rounded=0;whiteSpace=wrap;html=1;fillColor=#d5e8d4;strokeColor=#82b366;" vertex="1" parent="1">
          <mxGeometry x="60" y="260" width="120" height="60" as="geometry" />
        </mxCell>
        <mxCell id="b-_r-TRPUt8KHK4c5pgt-4" value="espera 3 seg" style="rounded=0;whiteSpace=wrap;html=1;fillColor=#dae8fc;strokeColor=#6c8ebf;" vertex="1" parent="1">
          <mxGeometry x="60" y="340" width="120" height="60" as="geometry" />
        </mxCell>
        <mxCell id="b-_r-TRPUt8KHK4c5pgt-15" value="" style="edgeStyle=orthogonalEdgeStyle;rounded=0;orthogonalLoop=1;jettySize=auto;html=1;" edge="1" parent="1" source="b-_r-TRPUt8KHK4c5pgt-5" target="b-_r-TRPUt8KHK4c5pgt-7">
          <mxGeometry relative="1" as="geometry" />
        </mxCell>
        <mxCell id="b-_r-TRPUt8KHK4c5pgt-5" value="LED amarillo (2) ALTO" style="rounded=0;whiteSpace=wrap;html=1;fillColor=#fff2cc;strokeColor=#d6b656;" vertex="1" parent="1">
          <mxGeometry x="60" y="430" width="120" height="60" as="geometry" />
        </mxCell>
        <mxCell id="b-_r-TRPUt8KHK4c5pgt-17" style="edgeStyle=orthogonalEdgeStyle;rounded=0;orthogonalLoop=1;jettySize=auto;html=1;entryX=0;entryY=0.5;entryDx=0;entryDy=0;" edge="1" parent="1" source="b-_r-TRPUt8KHK4c5pgt-6" target="b-_r-TRPUt8KHK4c5pgt-8">
          <mxGeometry relative="1" as="geometry" />
        </mxCell>
        <mxCell id="b-_r-TRPUt8KHK4c5pgt-6" value="espera 3 seg" style="rounded=0;whiteSpace=wrap;html=1;fillColor=#dae8fc;strokeColor=#6c8ebf;" vertex="1" parent="1">
          <mxGeometry x="60" y="595" width="120" height="60" as="geometry" />
        </mxCell>
        <mxCell id="b-_r-TRPUt8KHK4c5pgt-16" value="" style="edgeStyle=orthogonalEdgeStyle;rounded=0;orthogonalLoop=1;jettySize=auto;html=1;" edge="1" parent="1" source="b-_r-TRPUt8KHK4c5pgt-7" target="b-_r-TRPUt8KHK4c5pgt-6">
          <mxGeometry relative="1" as="geometry" />
        </mxCell>
        <mxCell id="b-_r-TRPUt8KHK4c5pgt-7" value="LED verde (2) BAJO" style="rounded=0;whiteSpace=wrap;html=1;fillColor=#d5e8d4;strokeColor=#82b366;" vertex="1" parent="1">
          <mxGeometry x="60" y="510" width="120" height="60" as="geometry" />
        </mxCell>
        <mxCell id="b-_r-TRPUt8KHK4c5pgt-18" value="" style="edgeStyle=orthogonalEdgeStyle;rounded=0;orthogonalLoop=1;jettySize=auto;html=1;" edge="1" parent="1" source="b-_r-TRPUt8KHK4c5pgt-8" target="b-_r-TRPUt8KHK4c5pgt-10">
          <mxGeometry relative="1" as="geometry" />
        </mxCell>
        <mxCell id="b-_r-TRPUt8KHK4c5pgt-8" value="LED&amp;nbsp; rojo (2) ALTO" style="rounded=0;whiteSpace=wrap;html=1;fillColor=#f8cecc;strokeColor=#b85450;" vertex="1" parent="1">
          <mxGeometry x="280" y="180" width="120" height="60" as="geometry" />
        </mxCell>
        <mxCell id="b-_r-TRPUt8KHK4c5pgt-19" value="" style="edgeStyle=orthogonalEdgeStyle;rounded=0;orthogonalLoop=1;jettySize=auto;html=1;" edge="1" parent="1" source="b-_r-TRPUt8KHK4c5pgt-9" target="b-_r-TRPUt8KHK4c5pgt-11">
          <mxGeometry relative="1" as="geometry" />
        </mxCell>
        <mxCell id="b-_r-TRPUt8KHK4c5pgt-9" value="LED amarillo (2) BAJO" style="rounded=0;whiteSpace=wrap;html=1;fillColor=#fff2cc;strokeColor=#d6b656;" vertex="1" parent="1">
          <mxGeometry x="280" y="260" width="120" height="60" as="geometry" />
        </mxCell>
        <mxCell id="b-_r-TRPUt8KHK4c5pgt-20" value="" style="edgeStyle=orthogonalEdgeStyle;rounded=0;orthogonalLoop=1;jettySize=auto;html=1;" edge="1" parent="1" source="b-_r-TRPUt8KHK4c5pgt-10" target="b-_r-TRPUt8KHK4c5pgt-11">
          <mxGeometry relative="1" as="geometry" />
        </mxCell>
        <mxCell id="b-_r-TRPUt8KHK4c5pgt-10" value="LED&amp;nbsp; verde (1) ALTO" style="rounded=0;whiteSpace=wrap;html=1;fillColor=#d5e8d4;strokeColor=#82b366;" vertex="1" parent="1">
          <mxGeometry x="280" y="340" width="120" height="60" as="geometry" />
        </mxCell>
        <mxCell id="b-_r-TRPUt8KHK4c5pgt-27" value="" style="edgeStyle=orthogonalEdgeStyle;rounded=0;orthogonalLoop=1;jettySize=auto;html=1;" edge="1" parent="1" source="b-_r-TRPUt8KHK4c5pgt-11" target="b-_r-TRPUt8KHK4c5pgt-25">
          <mxGeometry relative="1" as="geometry" />
        </mxCell>
        <mxCell id="b-_r-TRPUt8KHK4c5pgt-11" value="LED rojo (1) BAJO" style="rounded=0;whiteSpace=wrap;html=1;fillColor=#f8cecc;strokeColor=#b85450;" vertex="1" parent="1">
          <mxGeometry x="280" y="420" width="120" height="60" as="geometry" />
        </mxCell>
        <mxCell id="b-_r-TRPUt8KHK4c5pgt-36" value="" style="edgeStyle=orthogonalEdgeStyle;rounded=0;orthogonalLoop=1;jettySize=auto;html=1;" edge="1" parent="1" source="b-_r-TRPUt8KHK4c5pgt-21" target="b-_r-TRPUt8KHK4c5pgt-22">
          <mxGeometry relative="1" as="geometry" />
        </mxCell>
        <mxCell id="b-_r-TRPUt8KHK4c5pgt-21" value="LED&amp;nbsp; verde (1) BAJO" style="rounded=0;whiteSpace=wrap;html=1;fillColor=#d5e8d4;strokeColor=#82b366;" vertex="1" parent="1">
          <mxGeometry x="280" y="595" width="120" height="60" as="geometry" />
        </mxCell>
        <mxCell id="b-_r-TRPUt8KHK4c5pgt-37" style="edgeStyle=orthogonalEdgeStyle;rounded=0;orthogonalLoop=1;jettySize=auto;html=1;entryX=0;entryY=0.5;entryDx=0;entryDy=0;" edge="1" parent="1" source="b-_r-TRPUt8KHK4c5pgt-22" target="b-_r-TRPUt8KHK4c5pgt-26">
          <mxGeometry relative="1" as="geometry" />
        </mxCell>
        <mxCell id="b-_r-TRPUt8KHK4c5pgt-22" value="LED amarillo (1) ALTO" style="rounded=0;whiteSpace=wrap;html=1;fillColor=#fff2cc;strokeColor=#d6b656;" vertex="1" parent="1">
          <mxGeometry x="280" y="680" width="120" height="60" as="geometry" />
        </mxCell>
        <mxCell id="b-_r-TRPUt8KHK4c5pgt-40" value="" style="edgeStyle=orthogonalEdgeStyle;rounded=0;orthogonalLoop=1;jettySize=auto;html=1;" edge="1" parent="1" source="b-_r-TRPUt8KHK4c5pgt-23" target="b-_r-TRPUt8KHK4c5pgt-24">
          <mxGeometry relative="1" as="geometry" />
        </mxCell>
        <mxCell id="b-_r-TRPUt8KHK4c5pgt-23" value="LED rojo (2) BAJO" style="rounded=0;whiteSpace=wrap;html=1;fillColor=#f8cecc;strokeColor=#b85450;" vertex="1" parent="1">
          <mxGeometry x="470" y="260" width="120" height="60" as="geometry" />
        </mxCell>
        <mxCell id="b-_r-TRPUt8KHK4c5pgt-42" value="" style="edgeStyle=orthogonalEdgeStyle;rounded=0;orthogonalLoop=1;jettySize=auto;html=1;" edge="1" parent="1" source="b-_r-TRPUt8KHK4c5pgt-24" target="b-_r-TRPUt8KHK4c5pgt-41">
          <mxGeometry relative="1" as="geometry" />
        </mxCell>
        <mxCell id="b-_r-TRPUt8KHK4c5pgt-24" value="LED amarillo (1) BAJO" style="rounded=0;whiteSpace=wrap;html=1;fillColor=#fff2cc;strokeColor=#d6b656;" vertex="1" parent="1">
          <mxGeometry x="470" y="340" width="120" height="60" as="geometry" />
        </mxCell>
        <mxCell id="b-_r-TRPUt8KHK4c5pgt-34" value="" style="edgeStyle=orthogonalEdgeStyle;rounded=0;orthogonalLoop=1;jettySize=auto;html=1;" edge="1" parent="1" source="b-_r-TRPUt8KHK4c5pgt-25">
          <mxGeometry relative="1" as="geometry">
            <mxPoint x="340" y="590" as="targetPoint" />
          </mxGeometry>
        </mxCell>
        <mxCell id="b-_r-TRPUt8KHK4c5pgt-25" value="espera 3 seg" style="rounded=0;whiteSpace=wrap;html=1;fillColor=#dae8fc;strokeColor=#6c8ebf;" vertex="1" parent="1">
          <mxGeometry x="280" y="500" width="120" height="60" as="geometry" />
        </mxCell>
        <mxCell id="b-_r-TRPUt8KHK4c5pgt-39" value="" style="edgeStyle=orthogonalEdgeStyle;rounded=0;orthogonalLoop=1;jettySize=auto;html=1;" edge="1" parent="1" source="b-_r-TRPUt8KHK4c5pgt-26">
          <mxGeometry relative="1" as="geometry">
            <mxPoint x="530" y="260" as="targetPoint" />
          </mxGeometry>
        </mxCell>
        <mxCell id="b-_r-TRPUt8KHK4c5pgt-26" value="espera 3 seg" style="rounded=0;whiteSpace=wrap;html=1;fillColor=#dae8fc;strokeColor=#6c8ebf;" vertex="1" parent="1">
          <mxGeometry x="470" y="170" width="120" height="60" as="geometry" />
        </mxCell>
        <mxCell id="b-_r-TRPUt8KHK4c5pgt-41" value="FIN" style="ellipse;whiteSpace=wrap;html=1;" vertex="1" parent="1">
          <mxGeometry x="470" y="430" width="120" height="80" as="geometry" />
        </mxCell>
      </root>
    </mxGraphModel>
  </diagram>
</mxfile>
